<mxfile host="app.diagrams.net" modified="2023-05-12T17:52:40.256Z" agent="Mozilla/5.0 (Windows NT 10.0; Win64; x64) AppleWebKit/537.36 (KHTML, like Gecko) Chrome/110.0.0.0 Safari/537.36" etag="_dbA6ZJIJmqGm-zL1wb-" version="21.3.0" type="device">
  <diagram name="Página-1" id="0As54-dhOC5CBwlsK_A0">
    <mxGraphModel dx="1793" dy="945" grid="1" gridSize="10" guides="1" tooltips="1" connect="1" arrows="1" fold="1" page="1" pageScale="1" pageWidth="850" pageHeight="1100" math="0" shadow="0">
      <root>
        <mxCell id="0" />
        <mxCell id="1" parent="0" />
        <mxCell id="fk7LVfmelihzW8eD04IM-1" value="Cliente" style="shape=umlActor;verticalLabelPosition=bottom;verticalAlign=top;html=1;outlineConnect=0;" vertex="1" parent="1">
          <mxGeometry x="70" y="280" width="55" height="110" as="geometry" />
        </mxCell>
        <mxCell id="fk7LVfmelihzW8eD04IM-4" value="" style="swimlane;startSize=0;" vertex="1" parent="1">
          <mxGeometry x="210" y="50" width="700" height="700" as="geometry" />
        </mxCell>
        <mxCell id="fk7LVfmelihzW8eD04IM-8" value="Se Cadastra" style="ellipse;whiteSpace=wrap;html=1;fillColor=#fff2cc;strokeColor=#d6b656;" vertex="1" parent="fk7LVfmelihzW8eD04IM-4">
          <mxGeometry x="240" y="20" width="120" height="80" as="geometry" />
        </mxCell>
        <mxCell id="fk7LVfmelihzW8eD04IM-9" value="Realiza Login" style="ellipse;whiteSpace=wrap;html=1;fillColor=#fff2cc;strokeColor=#d6b656;" vertex="1" parent="fk7LVfmelihzW8eD04IM-4">
          <mxGeometry x="240" y="310" width="120" height="80" as="geometry" />
        </mxCell>
        <mxCell id="fk7LVfmelihzW8eD04IM-10" value="Compra Produto" style="ellipse;whiteSpace=wrap;html=1;fillColor=#fff2cc;strokeColor=#d6b656;" vertex="1" parent="fk7LVfmelihzW8eD04IM-4">
          <mxGeometry x="240" y="450" width="120" height="80" as="geometry" />
        </mxCell>
        <mxCell id="fk7LVfmelihzW8eD04IM-17" value="Cadastra Produto" style="ellipse;whiteSpace=wrap;html=1;fillColor=#f8cecc;strokeColor=#b85450;" vertex="1" parent="fk7LVfmelihzW8eD04IM-4">
          <mxGeometry x="350" y="100" width="120" height="80" as="geometry" />
        </mxCell>
        <mxCell id="fk7LVfmelihzW8eD04IM-18" value="Consulta Catálogo" style="ellipse;whiteSpace=wrap;html=1;fillColor=#fff2cc;strokeColor=#d79b00;gradientColor=#f8d0ce;" vertex="1" parent="fk7LVfmelihzW8eD04IM-4">
          <mxGeometry x="290" y="210" width="120" height="80" as="geometry" />
        </mxCell>
        <mxCell id="fk7LVfmelihzW8eD04IM-23" value="Exlcui Produtos" style="ellipse;whiteSpace=wrap;html=1;fillColor=#f8cecc;strokeColor=#b85450;" vertex="1" parent="fk7LVfmelihzW8eD04IM-4">
          <mxGeometry x="350" y="380" width="120" height="80" as="geometry" />
        </mxCell>
        <mxCell id="fk7LVfmelihzW8eD04IM-26" value="Avalia Produto" style="ellipse;whiteSpace=wrap;html=1;fillColor=#fff2cc;strokeColor=#d6b656;" vertex="1" parent="fk7LVfmelihzW8eD04IM-4">
          <mxGeometry x="240" y="600" width="120" height="80" as="geometry" />
        </mxCell>
        <mxCell id="fk7LVfmelihzW8eD04IM-28" value="Edita Produtos" style="ellipse;whiteSpace=wrap;html=1;fillColor=#f8cecc;strokeColor=#b85450;" vertex="1" parent="fk7LVfmelihzW8eD04IM-4">
          <mxGeometry x="360" y="530" width="120" height="80" as="geometry" />
        </mxCell>
        <mxCell id="fk7LVfmelihzW8eD04IM-6" value="Funcionário&lt;br&gt;" style="shape=umlActor;verticalLabelPosition=bottom;verticalAlign=top;html=1;outlineConnect=0;" vertex="1" parent="1">
          <mxGeometry x="1010" y="280" width="55" height="110" as="geometry" />
        </mxCell>
        <mxCell id="fk7LVfmelihzW8eD04IM-14" value="" style="endArrow=none;html=1;rounded=0;entryX=0.048;entryY=0.781;entryDx=0;entryDy=0;entryPerimeter=0;" edge="1" parent="1" source="fk7LVfmelihzW8eD04IM-1" target="fk7LVfmelihzW8eD04IM-8">
          <mxGeometry width="50" height="50" relative="1" as="geometry">
            <mxPoint x="580" y="590" as="sourcePoint" />
            <mxPoint x="630" y="540" as="targetPoint" />
          </mxGeometry>
        </mxCell>
        <mxCell id="fk7LVfmelihzW8eD04IM-15" value="" style="endArrow=none;html=1;rounded=0;entryX=0;entryY=0.5;entryDx=0;entryDy=0;exitX=1;exitY=0.3333333333333333;exitDx=0;exitDy=0;exitPerimeter=0;" edge="1" parent="1" source="fk7LVfmelihzW8eD04IM-1" target="fk7LVfmelihzW8eD04IM-9">
          <mxGeometry width="50" height="50" relative="1" as="geometry">
            <mxPoint x="135" y="362" as="sourcePoint" />
            <mxPoint x="346" y="182" as="targetPoint" />
          </mxGeometry>
        </mxCell>
        <mxCell id="fk7LVfmelihzW8eD04IM-16" value="" style="endArrow=none;html=1;rounded=0;entryX=0;entryY=0.5;entryDx=0;entryDy=0;exitX=1;exitY=0.3333333333333333;exitDx=0;exitDy=0;exitPerimeter=0;" edge="1" parent="1" source="fk7LVfmelihzW8eD04IM-1" target="fk7LVfmelihzW8eD04IM-10">
          <mxGeometry width="50" height="50" relative="1" as="geometry">
            <mxPoint x="130" y="360" as="sourcePoint" />
            <mxPoint x="400" y="330" as="targetPoint" />
          </mxGeometry>
        </mxCell>
        <mxCell id="fk7LVfmelihzW8eD04IM-19" value="" style="endArrow=none;html=1;rounded=0;entryX=0;entryY=0.3333333333333333;entryDx=0;entryDy=0;entryPerimeter=0;exitX=1;exitY=0.5;exitDx=0;exitDy=0;" edge="1" parent="1" source="fk7LVfmelihzW8eD04IM-17" target="fk7LVfmelihzW8eD04IM-6">
          <mxGeometry width="50" height="50" relative="1" as="geometry">
            <mxPoint x="940" y="310" as="sourcePoint" />
            <mxPoint x="990" y="260" as="targetPoint" />
          </mxGeometry>
        </mxCell>
        <mxCell id="fk7LVfmelihzW8eD04IM-20" value="" style="endArrow=none;html=1;rounded=0;entryX=0;entryY=0.3333333333333333;entryDx=0;entryDy=0;entryPerimeter=0;" edge="1" parent="1" source="fk7LVfmelihzW8eD04IM-18" target="fk7LVfmelihzW8eD04IM-6">
          <mxGeometry width="50" height="50" relative="1" as="geometry">
            <mxPoint x="730" y="170" as="sourcePoint" />
            <mxPoint x="1020" y="327" as="targetPoint" />
          </mxGeometry>
        </mxCell>
        <mxCell id="fk7LVfmelihzW8eD04IM-21" value="" style="endArrow=none;html=1;rounded=0;exitX=1;exitY=0.3333333333333333;exitDx=0;exitDy=0;exitPerimeter=0;entryX=0;entryY=0.5;entryDx=0;entryDy=0;" edge="1" parent="1" source="fk7LVfmelihzW8eD04IM-1" target="fk7LVfmelihzW8eD04IM-18">
          <mxGeometry width="50" height="50" relative="1" as="geometry">
            <mxPoint x="690" y="330" as="sourcePoint" />
            <mxPoint x="570" y="320" as="targetPoint" />
          </mxGeometry>
        </mxCell>
        <mxCell id="fk7LVfmelihzW8eD04IM-24" value="" style="endArrow=none;html=1;rounded=0;exitX=1;exitY=0.5;exitDx=0;exitDy=0;entryX=0;entryY=0.3333333333333333;entryDx=0;entryDy=0;entryPerimeter=0;" edge="1" parent="1" source="fk7LVfmelihzW8eD04IM-23" target="fk7LVfmelihzW8eD04IM-6">
          <mxGeometry width="50" height="50" relative="1" as="geometry">
            <mxPoint x="630" y="330" as="sourcePoint" />
            <mxPoint x="1020" y="327" as="targetPoint" />
          </mxGeometry>
        </mxCell>
        <mxCell id="fk7LVfmelihzW8eD04IM-27" value="" style="endArrow=none;html=1;rounded=0;entryX=0.079;entryY=0.266;entryDx=0;entryDy=0;entryPerimeter=0;" edge="1" parent="1" target="fk7LVfmelihzW8eD04IM-26">
          <mxGeometry width="50" height="50" relative="1" as="geometry">
            <mxPoint x="130" y="320" as="sourcePoint" />
            <mxPoint x="380" y="390" as="targetPoint" />
          </mxGeometry>
        </mxCell>
        <mxCell id="fk7LVfmelihzW8eD04IM-29" value="" style="endArrow=none;html=1;rounded=0;exitX=1;exitY=0.5;exitDx=0;exitDy=0;entryX=0;entryY=0.3333333333333333;entryDx=0;entryDy=0;entryPerimeter=0;" edge="1" parent="1" source="fk7LVfmelihzW8eD04IM-28" target="fk7LVfmelihzW8eD04IM-6">
          <mxGeometry width="50" height="50" relative="1" as="geometry">
            <mxPoint x="700" y="500" as="sourcePoint" />
            <mxPoint x="1020" y="327" as="targetPoint" />
          </mxGeometry>
        </mxCell>
      </root>
    </mxGraphModel>
  </diagram>
</mxfile>
